<svg width="61" height="78" viewBox="0 0 61 78" fill="none" xmlns="http://www.w3.org/2000/svg">
<g clip-path="url(#clip0_2062_392)">
<g clip-path="url(#clip1_2062_392)">
<path d="M21.7987 54.0716L49.9807 61.6229M7.45478 65.3308L70.8643 82.3213M46.205 75.7139C52.745 77.4663 59.7134 76.5489 65.577 73.1636C71.4406 69.7782 75.7193 64.2021 77.4717 57.6621C79.2241 51.1221 78.3067 44.1538 74.9213 38.2901C71.5359 32.4265 65.9599 28.1478 59.4199 26.3954L55.8971 25.4515M36.1426 42.8123L43.1881 44.7002M54.2622 17.4621L57.094 6.89386C57.3443 5.95957 57.2132 4.9641 56.7296 4.12644C56.246 3.28877 55.4494 2.67754 54.5151 2.4272L47.4696 0.539361C46.5353 0.289018 45.5399 0.420075 44.7022 0.903699C43.8645 1.38732 43.2533 2.1839 43.003 3.11819L40.1712 13.6864M38.0304 35.7668C36.1619 35.2662 34.5687 34.0437 33.6015 32.3684C32.6342 30.693 32.3721 28.7021 32.8728 26.8335L36.6485 12.7425L57.7849 18.406L54.0093 32.497C53.5086 34.3656 52.2861 35.9588 50.6108 36.926C48.9355 37.8933 46.9445 38.1554 45.0759 37.6547L38.0304 35.7668Z" stroke="#D7F0EE" stroke-linecap="round" stroke-linejoin="round"/>
</g>
</g>
<defs>
<clipPath id="clip0_2062_392">
<rect width="61" height="78" fill="white"/>
</clipPath>
<clipPath id="clip1_2062_392">
<rect width="87.5284" height="87.5284" fill="white" transform="translate(17.6527 -15.0013) rotate(15)"/>
</clipPath>
</defs>
</svg>
